<?xml version="1.0" encoding="utf-8"?>
<!-- Generator: Adobe Illustrator 16.0.0, SVG Export Plug-In . SVG Version: 6.00 Build 0)  -->
<!DOCTYPE svg PUBLIC "-//W3C//DTD SVG 1.1//EN" "http://www.w3.org/Graphics/SVG/1.1/DTD/svg11.dtd">
<svg version="1.1" id="Layer_1" xmlns="http://www.w3.org/2000/svg" xmlns:xlink="http://www.w3.org/1999/xlink" x="0px" y="0px"
	 width="1000px" height="872.597px" viewBox="0 0 1000 872.597" enable-background="new 0 0 1000 872.597" xml:space="preserve">
<g>
	<path fill="#FFFFFF" d="M968.746,809.658l-31.862-28.018l30.76-32.634c3.418-3.638,5.209-8.515,4.879-13.518
		c-0.305-4.976-2.674-9.605-6.534-12.804l-21.332-17.612c-3.362-2.756-7.44-4.135-11.493-4.135c-4.879,0-9.729,1.985-13.286,5.815
		l-8.213,8.932c-2.535-6.684-8.875-11.495-16.371-11.715l-29.355-0.881c-0.191,0-0.356-0.014-0.55-0.014
		c-4.685,0-9.206,1.831-12.596,5.113c-1.379,1.362-2.481,2.976-3.363,4.685c-5.292-3.666-11.52-6.588-18.688-8.642
		c-8.129-2.329-17.5-3.459-28.664-3.459c-4.934,0-10.253,0.222-15.792,0.676c-6.506,0.536-13.698,2.109-21.995,4.837
		c-7.414,2.426-12.402,9.315-12.459,17.088l-0.248,54.628c-15.985-44.512-16.041-82.216-15.076-98.243
		c0.056-0.635,0.111-1.283,0.111-1.93c0-9.978-8.076-18.068-18.082-18.068h-0.026h-0.248c-2.976,0.056-5.733,0.801-8.187,2.096
		c-37.016,18.715-63.007,54.903-80.867,91.272l0.056-30.195c0.028-9.84-7.883-17.9-17.723-18.066l-30.069-0.538h-0.332
		c-4.741,0-9.262,1.847-12.651,5.154c0,0.041-0.028,0.055-0.028,0.068c-0.468-0.564-0.964-1.103-1.459-1.611
		c-3.363-3.335-7.938-5.21-12.707-5.21h-0.192l-32.881,0.346c-5.844,0.068-10.971,2.936-14.229,7.276
		c-1.173-0.635-2.315-1.297-3.528-1.875c-4.645-2.191-9.605-4.011-14.76-5.348c-5.554-1.446-11.245-2.191-16.923-2.191
		c-18.19,0-33.212,4.411-44.637,13.148c-2.853,2.149-5.844,5.03-8.641,8.557c-0.11-0.454-0.151-0.895-0.317-1.363
		c-1.777-5.112-5.72-9.15-10.805-11.025l-29.339-10.859c-2.054-0.744-4.177-1.13-6.271-1.13c-6.561,0-12.803,3.584-16.014,9.701
		l-9.481,18.165l-9.371-19.817c-3.087-6.506-9.551-10.364-16.358-10.364c-2.274,0-4.575,0.442-6.808,1.351l-28.913,11.811
		c-5.939-2.949-12.733-5.085-20.423-6.325c-7.553-1.213-16.247-1.848-25.799-1.848c-4.795,0-9.288-0.054-13.464-0.165
		c-1.64-0.041-3.142-0.068-4.561-0.068c-3.074,0-5.679,0.109-7.979,0.316c-9.303,0.828-16.427,8.654-16.427,17.998v23.125
		l-8.077-26.597c-2.301-7.621-9.329-12.817-17.281-12.817h-33.253c-7.994,0-15.008,5.225-17.31,12.857l-7.221,23.951
		c-1.062-4.588-2.633-8.818-4.824-12.609c-4.024-6.918-9.812-12.513-17.212-16.661c-6.408-3.582-14.057-6.104-22.767-7.482
		c-7.565-1.213-16.234-1.848-25.812-1.848c-4.782,0-9.289-0.054-13.464-0.165c-1.613-0.041-3.128-0.068-4.535-0.068
		c-3.086,0-5.691,0.109-7.992,0.316C7.111,701.85,0,709.676,0,719.02v124.126c0,8.752,6.284,16.248,14.884,17.793
		c11.354,2.011,22.132,3.058,32.026,3.058c4.865,0,9.634-0.262,14.181-0.744c5.981-0.551,12.251-1.764,18.315-3.597
		c2.798-0.84,5.431-1.859,8.021-3.018c3.143,3.308,7.387,5.375,12.018,5.621l34.135,1.793c0.331,0,0.635,0,0.965,0
		c8.778,0,16.358-6.339,17.806-15.091l2.164-12.913l0.55-0.014l3.074,14.14c1.805,8.421,9.261,14.236,17.64,14.236
		c0.785,0,1.612-0.056,2.397-0.166l30.222-4.036c0.854,0.288,1.737,0.55,2.674,0.73c11.328,2.011,22.104,3.058,32,3.058
		c4.878,0,9.646-0.262,14.194-0.744c5.994-0.551,12.237-1.791,18.329-3.597c6.918-2.053,13.243-5.141,18.812-9.191
		c6.007-4.382,10.955-10.006,14.731-16.716c0.716-1.269,1.296-2.633,1.888-3.983v24.778c0,5.761,2.784,11.218,7.455,14.608
		c3.129,2.259,6.836,3.445,10.626,3.445c1.874,0,3.748-0.304,5.581-0.91l31.118-10.116c7.345-2.397,12.333-9.163,12.485-16.894
		l0.799-46.995l28.912-47.13c-0.15,1.819-0.344,3.638-0.344,5.636c0,6.449,1.103,12.445,3.266,17.846
		c2.067,5.182,5.099,10.032,8.985,14.375c1.585,1.763,3.322,3.5,5.182,5.167c-2.895,1.861-5.25,4.521-6.711,7.718l-11.729,25.605
		c-4.106,8.957-0.302,19.541,8.573,23.813c6.82,3.28,14.221,6.284,22.063,8.916c8.683,2.949,18.273,4.424,28.499,4.424h1.446
		c9.634-0.138,18.357-1.736,25.965-4.713c4.465-1.736,8.502-3.886,12.21-6.396c0.868,1.709,1.943,3.309,3.301,4.659
		c3.416,3.362,7.965,5.209,12.706,5.209h0.275l32.882-0.524c5.153-0.082,9.758-2.313,12.981-5.787
		c3.252,3.5,7.883,5.733,13.01,5.787l30.125,0.346c1.709,0.537,3.473,0.896,5.319,0.896h40.544c9.179,0,16.867-6.862,17.942-15.958
		c0.358-3.06,1.131-8.297,2.783-14.801h17.559c5.731,9.866,11.823,18.273,18.19,25.067c3.418,3.651,8.186,5.691,13.176,5.691h39.331
		c2.205,0,4.271-0.524,6.283-1.27l26.488-0.164c6.091-0.027,11.465-3.086,14.717-7.744l0.855,1.723
		c3.168,6.242,9.508,9.936,16.15,9.936c2.232,0,4.521-0.414,6.697-1.296l17.006-6.822c3.252,2.785,7.358,4.396,11.659,4.396h0.33
		l29.327-0.551c8.047-0.138,14.746-5.484,16.978-12.789l9.04,9.096c3.529,3.527,8.16,5.32,12.789,5.32
		c4.521,0,9.041-1.683,12.541-5.059l22.932-22.035c3.638-3.527,5.649-8.393,5.541-13.449
		C974.754,817.775,972.548,812.979,968.746,809.658"/>
	<path fill="#123985" d="M18.054,719.02c2.617-0.248,6.091-0.303,10.418-0.179c4.326,0.11,8.971,0.179,13.96,0.179
		c8.655,0,16.304,0.524,22.945,1.599c6.629,1.047,12.237,2.868,16.786,5.415c4.561,2.552,8.048,5.872,10.404,9.964
		c2.37,4.095,3.68,9.18,3.928,15.201c0.124,3.322-0.276,6.492-1.158,9.523c-0.896,3.032-2.054,5.691-3.458,7.993
		c-1.435,2.315-3.061,4.272-4.894,5.871c-1.847,1.599-3.666,2.646-5.442,3.114c2.369,0.592,4.781,1.694,7.22,3.308
		c2.427,1.599,4.59,3.72,6.492,6.394c1.887,2.659,3.39,5.789,4.521,9.344c1.115,3.556,1.625,7.51,1.515,11.906
		c-0.234,6.396-1.612,11.797-4.078,16.262c-2.495,4.453-5.705,8.091-9.605,10.942c-3.915,2.84-8.365,5.017-13.34,6.49
		c-4.976,1.475-10.021,2.453-15.132,2.936c-12.072,1.297-25.784,0.594-41.081-2.121V719.02z M45.987,762.045
		c2.136,0.248,4.451,0.33,6.932,0.275c2.494-0.056,4.81-0.441,6.946-1.158c2.122-0.717,3.899-1.749,5.333-3.114
		c1.42-1.351,2.122-3.294,2.122-5.789c0-2.245-0.593-4.051-1.778-5.401c-1.186-1.378-2.756-2.371-4.713-3.031
		c-1.942-0.635-4.258-0.993-6.932-1.075c-2.659-0.056-5.43-0.027-8.282,0.082L45.987,762.045z M47.586,822.516
		c7.125,0.606,12.954-0.124,17.501-2.121c4.577-2.027,6.864-5.707,6.864-11.04c0-5.1-2.344-8.682-7.028-10.763
		c-4.687-2.067-10.694-3.115-18.054-3.115L47.586,822.516z"/>
	<path fill="#123985" d="M137.563,720.799h33.24l36.822,121.286l-31.834,4.245l-6.229-28.623l-30.401,0.536l-4.63,27.742
		l-34.136-1.778L137.563,720.799z M143.957,793.699l20.271-0.509l-10.666-33.806L143.957,793.699z"/>
	<path fill="#123985" d="M214.227,719.02c2.618-0.248,6.091-0.303,10.418-0.179c4.314,0.11,8.971,0.179,13.96,0.179
		c8.655,0,16.304,0.524,22.945,1.599c6.616,1.047,12.238,2.868,16.8,5.415c4.548,2.552,8.034,5.872,10.39,9.964
		c2.372,4.095,3.681,9.18,3.929,15.201c0.11,3.322-0.289,6.492-1.158,9.523c-0.909,3.032-2.053,5.691-3.473,7.993
		c-1.419,2.315-3.046,4.272-4.892,5.871c-1.847,1.599-3.652,2.646-5.431,3.114c2.372,0.592,4.783,1.694,7.208,3.308
		c2.439,1.599,4.589,3.72,6.504,6.394c1.89,2.659,3.404,5.789,4.521,9.344c1.116,3.556,1.626,7.51,1.516,11.906
		c-0.234,6.396-1.612,11.797-4.094,16.262c-2.479,4.453-5.705,8.091-9.592,10.942c-3.913,2.84-8.379,5.017-13.34,6.49
		c-4.988,1.475-10.019,2.453-15.131,2.936c-12.087,1.297-25.784,0.594-41.081-2.121V719.02z M242.16,762.045
		c2.137,0.248,4.438,0.33,6.933,0.275c2.493-0.056,4.809-0.441,6.945-1.158c2.122-0.717,3.887-1.749,5.333-3.114
		c1.419-1.351,2.122-3.294,2.122-5.789c0-2.245-0.606-4.051-1.777-5.401c-1.199-1.378-2.77-2.371-4.713-3.031
		c-1.943-0.635-4.259-0.993-6.946-1.075c-2.646-0.056-5.416-0.027-8.269,0.082L242.16,762.045z M243.76,822.516
		c7.109,0.606,12.953-0.124,17.502-2.121c4.561-2.027,6.862-5.707,6.862-11.04c0-5.1-2.343-8.682-7.028-10.763
		c-4.699-2.067-10.694-3.115-18.053-3.115L243.76,822.516z"/>
	<polygon fill="#123985" points="361.104,792.46 360.224,844.4 329.091,854.515 329.091,799.061 290.505,726.324 320.561,714.032 
		345.463,766.675 371.785,716.346 401.125,727.192 	"/>
	<path fill="#123985" d="M510.746,805.8c0.221,5.333-0.496,10.404-2.226,15.199c-1.724,4.811-4.396,9.041-8.021,12.735
		c-3.596,3.664-8.24,6.6-13.849,8.791c-5.637,2.205-12.183,3.364-19.667,3.473c-8.777,0.111-16.729-1.047-23.909-3.473
		c-7.18-2.425-13.837-5.127-19.996-8.103l11.714-25.605c2.977,1.901,6.532,3.749,10.694,5.512c4.147,1.765,8.268,3.088,12.348,3.914
		c4.093,0.827,7.827,1.007,11.204,0.551c3.377-0.469,5.788-2.025,7.207-4.629c1.296-2.495,1.433-4.769,0.441-6.864
		c-1.006-2.067-2.674-3.996-4.989-5.773s-5.002-3.432-8.075-4.975c-3.102-1.545-6.063-3.088-8.902-4.631
		c-4.631-2.481-8.71-5.003-12.266-7.552c-3.555-2.536-6.587-5.224-9.068-8.007c-2.494-2.77-4.382-5.802-5.705-9.082
		c-1.309-3.237-1.943-6.945-1.943-11.108c0-12.195,4.121-21.442,12.361-27.726c8.242-6.286,19.46-9.428,33.682-9.428
		c4.162,0,8.269,0.524,12.361,1.599c4.093,1.061,7.952,2.454,11.577,4.19c3.596,1.707,7,3.692,10.114,5.954
		c3.148,2.259,5.796,4.574,7.945,6.943l-15.677,21.141c-1.652-1.763-3.748-3.528-6.312-5.235c-2.535-1.709-5.237-3.239-8.075-4.549
		c-2.854-1.294-5.719-2.343-8.627-3.087c-2.908-0.785-5.567-1.102-8.021-0.993c-2.425,0.112-4.452,0.73-6.119,1.861
		s-2.674,2.882-3.018,5.251c-0.593,3.198,1.061,6.34,4.961,9.426c3.928,3.073,10.445,7.056,19.583,11.907
		c4.259,2.383,8.103,4.687,11.535,6.945c3.458,2.233,6.394,4.603,8.805,7.11c2.426,2.481,4.301,5.237,5.624,8.269
		C509.726,798.771,510.498,802.12,510.746,805.8"/>
	<polygon fill="#123985" points="581.168,795.656 554.294,796.553 554.294,844.207 521.413,844.759 521.413,721.143 
		554.294,720.784 554.294,768.452 581.168,768.824 581.168,722.409 611.209,722.934 611.017,844.564 580.81,844.207 	"/>
	<path fill="#123985" d="M807.094,802.424h-8.903v41.618l-28.801,0.165l0.524-120.749c6.861-2.233,12.815-3.584,17.858-3.996
		c5.045-0.414,9.813-0.606,14.305-0.606c9.373,0,17.281,0.908,23.677,2.741c6.395,1.833,11.604,4.396,15.655,7.732
		c4.024,3.32,6.946,7.249,8.792,11.741c1.818,4.507,2.865,9.426,3.113,14.772c0.36,9.344-1.267,17.061-4.822,23.098
		c-3.555,6.05-8.874,11.328-15.986,15.848l25.413,41.95l-27.894,11.202L807.094,802.424z M798.19,774.502h3.887
		c6.533,0,11.576-1.515,15.132-4.521c3.557-3.03,5.348-6.448,5.348-10.238c0-3.212-0.635-5.844-1.875-7.925
		c-1.239-2.067-2.92-3.693-5.071-4.879c-2.123-1.185-4.685-1.9-7.662-2.121c-2.95-0.248-6.202-0.192-9.758,0.164V774.502z"/>
	<polygon fill="#123985" points="954.495,736.619 910.92,782.853 956.783,823.232 933.852,845.281 894.742,805.979 894.742,843.685 
		865.415,844.207 865.415,721.143 894.742,722.052 894.742,760.626 933.135,719.02 	"/>
	<path fill="#123985" d="M718.51,677.844c-48.345,24.254-76.402,84.173-90.845,126.563c-6.312,18.48-10.032,33.668-11.659,41.068
		h40.544c0.606-5.348,2.259-15.684,6.367-27.948l0.937-2.826h41.729l1.159,2.22c6.117,11.687,12.651,21.292,19.459,28.555h39.331
		c-9.151-13.712-16.594-27.398-22.602-40.738C717.049,747.326,717.323,696.309,718.51,677.844 M693.785,738.314
		c0,0-0.192,21.36,8.077,49.722l-31.999-0.663C669.863,787.373,679.316,756.367,693.785,738.314"/>
	<path fill="#123985" d="M540.432,593.86c-12.899,0-23.373,10.488-23.373,23.374c0,12.897,10.474,23.371,23.373,23.371
		c12.897,0,23.372-10.474,23.372-23.371C563.804,604.349,553.329,593.86,540.432,593.86 M540.432,627.376
		c-5.596,0-10.144-4.549-10.144-10.142c0-5.596,4.548-10.145,10.144-10.145s10.142,4.549,10.142,10.145
		C550.573,622.827,546.027,627.376,540.432,627.376"/>
	<path fill="#123985" d="M502.803,593.282h10.313v-13.229h-10.327c-8.836,0-16.015,7.151-16.084,15.971v7.705h-7.842v13.229h7.842
		v23.647h7.896c2.936,0,5.319-2.369,5.319-5.319v-18.328h7.854c2.943,0,5.341-2.397,5.341-5.348v-7.882h-13.195v-7.595
		C499.935,594.551,501.216,593.282,502.803,593.282"/>
	<path fill="#123985" d="M327.658,593.86c-4.135,0-7.952,1.461-11.136,3.969c-0.964-1.377-2.576-2.3-4.396-2.3h-7.855v66.299h8.462
		c2.55-0.316,4.534-2.369,4.741-4.905v-19.597c2.976,2.066,6.448,3.279,10.184,3.279c12.886,0,23.358-10.474,23.358-23.371
		C351.017,604.349,340.544,593.86,327.658,593.86 M327.658,627.376c-5.595,0-10.157-4.549-10.157-10.142
		c0-5.596,4.563-10.145,10.157-10.145c5.581,0,10.143,4.549,10.143,10.145C337.801,622.827,333.239,627.376,327.658,627.376"/>
	<path fill="#123985" d="M424.635,617.234c0-12.872-10.487-23.374-23.386-23.374c-4.12,0-7.966,1.475-11.135,3.996
		c-0.992-1.377-2.563-2.287-4.383-2.315h-7.855v40.158c0.221,2.565,2.205,4.604,4.727,4.921h8.476v-3.294v-20.092h0.027
		c0-5.596,4.534-10.145,10.144-10.145c5.581,0,10.143,4.549,10.143,10.145h0.014v18.024c0,2.964,2.397,5.361,5.347,5.361h7.883
		V617.234z"/>
	<path fill="#123985" d="M459.088,621.01c-0.896-0.91-1.695-1.875-2.412-2.896l11.893-12.181c2.055-2.123,2.014-5.514-0.082-7.581
		l-5.65-5.511l-17.143,17.57v-24.986c0-2.948-2.398-5.348-5.361-5.348h-7.896v60.556h13.258v-11.246l1.667-1.735
		c0.758,0.923,1.516,1.847,2.397,2.699c6.382,6.382,14.787,9.992,23.759,10.254c0.014,0,0.041,0,0.069,0.028
		c0.551-0.028,1.006-0.496,1.006-1.049v-12.153C468.734,627.432,463.235,625.145,459.088,621.01"/>
	<path fill="#123985" d="M370.076,635.699v-40.17h-7.883c-2.853,0.04-5.168,2.273-5.347,5.111v39.993h8.488
		C367.872,640.304,369.842,638.265,370.076,635.699"/>
	<path fill="#123985" d="M355.469,582.382c0-4.396,3.582-7.979,7.979-7.979c4.438,0,8.021,3.582,8.021,7.979
		c0,4.423-3.583,8.007-8.021,8.007C359.051,590.389,355.469,586.805,355.469,582.382"/>
	<path fill="#123985" d="M662.751,595.541c-1.818,0-3.445,0.911-4.41,2.288c-3.17-2.508-7-3.969-11.135-3.969
		c-12.899,0-23.373,10.502-23.373,23.374c0,12.897,10.474,23.386,23.373,23.386c3.722,0,7.139-1.213,10.116-3.267
		c-0.305,3.818-2.123,12.321-11.825,15.56c-11.327,3.79-15.269-2.688-30.758-2.468c-9.813,0.18-17.172,4.301-21.307,7.345
		c-2.287,1.696-3.115,4.839-1.763,7.374c7.11,13.478,21.332,22.587,37.704,22.325c23.041-0.33,41.206-19.872,41.206-42.941v-6.532
		v-42.475H662.751z M622.399,675.692l-4.244,4.603c-8.185-2.466-15.213-7.799-20.147-15.518c-0.827-1.28-0.497-2.989,0.8-3.804
		c3.582-2.26,9.479-4.739,15.985-4.851h0.827c2.894,0,5.293,0.248,7.442,0.662l2.287,5.897l-6.561,5.003L622.399,675.692z
		 M657.376,617.234c0,5.593-4.547,10.142-10.17,10.142c-5.567,0-10.114-4.549-10.114-10.142c0-5.596,4.547-10.145,10.114-10.145
		C652.829,607.09,657.376,611.639,657.376,617.234"/>
	<path fill="#123985" d="M616.971,617.234c0-12.872-10.475-23.374-23.372-23.374c-4.135,0-7.967,1.475-11.136,3.996
		c-0.991-1.377-2.59-2.287-4.409-2.315h-7.828v40.158c0.191,2.565,2.205,4.604,4.712,4.921h8.489v-3.294v-20.092h0.028
		c0-5.596,4.521-10.145,10.144-10.145c5.567,0,10.142,4.549,10.142,10.145l0,0v18.024c0,2.964,2.398,5.361,5.348,5.361h7.883
		V617.234z"/>
	<polygon fill="#FFFFFF" points="962.738,699.244 966.761,699.244 966.761,713.948 971.695,713.948 971.695,699.244 
		975.746,699.244 975.746,695.096 962.738,695.096 	"/>
	<polygon fill="#FFFFFF" points="992.283,695.096 988.233,705.184 984.401,695.096 979.578,695.096 976.38,713.948 981.259,713.948 
		982.83,703.09 982.886,703.09 987.213,713.948 989.142,713.948 993.688,703.09 993.744,703.09 995.096,713.948 1000,713.948 
		997.162,695.096 	"/>
	<path fill="#FFFFFF" d="M885.701,274.236c-37.43-21.519-58.708-54.428-65.074-100.63c-4.603-33.356,0.881-61.82,1.874-66.521
		c0.828-3.177,1.24-6.477,1.24-9.764c0-21.706-17.666-39.372-39.359-39.372c-6.146,0-12.291,1.447-17.75,4.217
		c-52.146,25.398-82.769,62.159-90.953,109.242c-1.324,7.648-1.765,15.166-1.297,22.56c-17.418-9.522-32.963-21.532-46.827-33.37
		c-4.741-52.92,22.766-98.584,23.069-99.066c7.166-11.431,7.937-25.625,2.039-37.877c-5.897-12.251-17.474-20.479-31.008-22.015
		C612.174,0.539,602.638,0,593.267,0c-84.394-0.014-145.782,44.65-177.644,74.894c-30.787,2.371-104.682,14.215-163.582,71.931
		c-48.798,47.778-80.563,118.565-82.989,184.838c-0.082,0.931-0.179,2.211-0.275,3.811c-0.372,7.276-0.483,20.361,1.93,36.657
		c-16.303,6.029-35.376,10.64-56.917,13.774c-13.712,1.991-25.521,11.204-30.759,24.034c-5.25,12.823-3.32,27.658,5.059,38.704
		c2.135,2.825,53.442,69.063,146.134,69.063c12.913,0,26.128-1.309,39.372-3.914c43.865,24.586,91.438,35.914,157.201,37.678h1.047
		h1.02c82.901-2.094,127.192-18.19,167.818-43.741c21.307,6.615,42.557,9.978,63.228,9.978c92.691,0,143.985-66.238,146.135-69.077
		c8.379-11.046,10.336-25.881,5.071-38.69c-5.265-12.844-17.061-22.043-30.786-24.034c-14.223-2.06-27.37-4.837-39.276-8.282
		c7.524-9.468,14.552-19.204,21.084-29.168c13.672,9.909,30.319,15.015,49.255,15.015c34.782,0,65.624-18.054,71.468-21.664
		c11.658-7.269,18.799-20.319,18.576-34.107C905.215,293.923,897.636,281.1,885.701,274.236"/>
	<path fill="#FFD200" d="M784.382,97.316c-48.756,23.612-65.184,53.808-69.896,80.846c-6.752,38.669,28.995,64.15,45.313,73.625
		c-74.308,6.332-128.605-35.507-164.326-66.921c-1.625-1.439-3.252-2.853-4.822-4.244c-0.057-0.428-0.139-0.861-0.221-1.303
		C576.923,105.095,617.19,40.744,617.19,40.744c-90.154-10.288-153.154,39.414-184.755,73.04c-0.826-0.028-1.681-0.097-2.509-0.11
		c0,0-86.007-1.751-150.351,61.27c-42.129,41.254-69.471,102.684-71.221,159.241c0,0-0.138,1.198-0.248,3.369
		c-0.455,8.24-0.565,30.753,8.228,56.55c-20.892,12.293-51.72,24.187-96.881,30.746c0,0,57.412,75.74,160.646,46.979
		c40.709,26.005,82.549,38.465,151.743,40.31c79.29-2.011,117.794-16.426,161.893-47.048c0.523-0.372,0.992-0.744,1.517-1.103
		c117.524,47.807,183.425-39.139,183.425-39.139c-47.626-6.911-78.854-20.217-99.25-33.722
		c55.593-52.837,78.386-106.19,86.187-128.929c9.233,101.207,100.465,46.159,100.465,46.159
		C749.378,241.272,784.382,97.316,784.382,97.316"/>
	<path fill="#FCAF17" d="M615.344,311.363c0.084-0.338,0.248-0.62,0.552-0.835c0.745-0.564,2.344-1.729,3.473-2.632
		c1.24-0.937,3.197-2.674,4.521-3.83c0.688-0.635,0.634-1.73-0.139-2.281c-2.947-2.088-6.752-4.335-8.103-5.141
		c-0.33-0.193-0.552-0.489-0.634-0.861c-0.937-3.486-2.508-7.504-3.444-9.751c-0.36-0.874-1.461-1.185-2.233-0.592
		c-1.819,1.412-4.989,3.893-7.854,6.325c-0.276,0.221-0.578,0.352-0.938,0.352c-1.681-0.014-7.11-0.014-11.024,0.676
		c-0.854,0.145-1.379,0.979-1.157,1.806c0.937,3.823,3.143,8.765,3.805,10.272c0.164,0.324,0.192,0.67,0.082,1.007
		c-1.049,3.569-2.039,7.489-2.592,9.709c-0.248,0.93,0.469,1.833,1.434,1.805c2.453-0.068,6.808-0.269,10.363-0.848
		c0.358-0.067,0.717,0.015,1.047,0.241c1.269,0.903,4.907,3.459,8.021,5.307c0.828,0.461,1.848,0.083,2.123-0.82
		c0.44-1.295,0.991-3.107,1.405-4.645C614.6,314.608,615.123,312.354,615.344,311.363"/>
	<path fill="#FFD200" d="M216.335,394.104c-20.892,12.293-51.72,24.193-96.881,30.767c0,0,57.426,75.72,160.646,46.973
		c-3.404-2.177-6.78-4.41-10.171-6.766C240.024,444.316,224.396,417.828,216.335,394.104"/>
	<path fill="#FFFFFF" d="M655.667,339.352c-24.942-12.926-50.989-10.652-68.132-6.614c-11.935,2.791-19.543,6.437-19.543,6.437
		c-5.264,2.197-10.391,4.161-15.461,5.993c0.138-0.04,0.275-0.082,0.412-0.124c0.607,7.745,2.425,49.881-27.837,79.731
		c0,0.027-0.056,0.04-0.056,0.054c-1.517,1.496-3.142,2.964-4.823,4.39c-0.166,0.159-0.386,0.324-0.578,0.482
		c-1.517,1.269-3.144,2.521-4.824,3.734c-0.331,0.255-0.661,0.483-1.019,0.737c-1.571,1.103-3.227,2.171-4.907,3.219l-1.454,0.875
		c-1.639,0.958-3.348,1.902-5.099,2.791c-0.606,0.31-1.199,0.619-1.819,0.902c-1.723,0.848-3.5,1.653-5.348,2.411
		c-0.729,0.318-1.433,0.627-2.163,0.925c-1.818,0.716-3.707,1.391-5.65,2.046c-0.813,0.297-1.626,0.558-2.494,0.848
		c-1.915,0.606-3.955,1.171-5.994,1.702c-0.938,0.255-1.833,0.51-2.798,0.737c-2.067,0.508-4.244,0.943-6.463,1.364
		c-1.007,0.199-1.971,0.427-3.005,0.586c-2.301,0.412-4.699,0.73-7.097,1.046c-1.048,0.11-2.026,0.291-3.088,0.415
		c-2.674,0.274-5.457,0.494-8.241,0.688c-0.923,0.054-1.763,0.166-2.715,0.193c-3.748,0.206-7.648,0.33-11.686,0.33
		c-0.51,0-0.951-0.042-1.461-0.042c-3.597-0.027-7.125-0.096-10.515-0.288c-1.709-0.056-3.308-0.222-4.962-0.359
		c-2.08-0.15-4.23-0.274-6.229-0.497c-1.819-0.191-3.556-0.44-5.319-0.688c-1.696-0.248-3.445-0.439-5.1-0.716
		c-1.791-0.283-3.515-0.653-5.25-0.993c-1.461-0.295-2.991-0.564-4.396-0.888c-1.736-0.407-3.39-0.862-5.058-1.296
		c-1.296-0.352-2.633-0.675-3.9-1.061c-1.64-0.489-3.211-1.026-4.796-1.564c-1.156-0.393-2.342-0.793-3.444-1.213
		c-1.559-0.58-3.046-1.185-4.507-1.805c-1.048-0.442-2.095-0.876-3.087-1.33c-1.461-0.662-2.853-1.364-4.244-2.074
		c-0.896-0.463-1.819-0.917-2.688-1.413c-1.377-0.744-2.701-1.522-3.981-2.315c-0.8-0.476-1.585-0.971-2.344-1.461
		c-1.281-0.834-2.521-1.682-3.734-2.556c-0.688-0.482-1.364-0.972-2.012-1.468c-1.213-0.931-2.385-1.86-3.501-2.797
		c-0.564-0.489-1.116-0.972-1.653-1.455c-1.131-0.999-2.246-2.033-3.308-3.059c-0.455-0.436-0.882-0.876-1.295-1.33
		c-1.089-1.109-2.15-2.227-3.156-3.355c-0.317-0.365-0.634-0.752-0.938-1.117c-1.033-1.226-2.066-2.466-3.005-3.728
		c-0.206-0.234-0.371-0.503-0.564-0.744c-1.02-1.398-2.024-2.798-2.936-4.189c-0.041-0.056-0.067-0.117-0.124-0.173
		c-17.749-27.265-16.068-57.515-15.586-62.91c-6.05-2.129-12.251-4.526-18.66-7.192c0,0-42.803-20.425-83.939-1.613
		c-0.441,8.241-0.552,30.753,8.228,56.55c8.075,23.718,23.703,50.191,53.607,70.967c3.377,2.355,6.767,4.589,10.171,6.766
		c40.709,25.964,82.549,38.437,151.743,40.282c79.29-1.997,117.794-16.412,161.893-47.048c0.523-0.346,0.992-0.73,1.517-1.089
		c13.176-9.413,23.565-19.941,31.668-30.835c16.592-22.278,23.786-46.015,26.79-64.688
		C655.779,355.613,655.888,345.195,655.667,339.352"/>
	<path fill="#FFFFFF" d="M581.416,272.156c-2.262-15.58-9.426-28.279-21.471-38.043c-12.045-9.778-25.495-13.645-40.406-11.597
		c-14.877,2.047-26.853,9.268-35.948,21.685c-3.693,5.071-6.437,10.432-8.282,16.048c-0.042,0.138-0.083,0.296-0.124,0.434
		c-0.717,2.247-1.241,4.549-1.668,6.891c-0.069,0.338-0.193,0.689-0.262,1.041c0.027,0,0.055,0.014,0.068,0.034
		c-0.647,3.948-0.937,8.014-0.702,12.23c0.082,1.751,0.234,3.515,0.454,5.319c1.048,7.256,3.184,13.844,6.285,19.817
		c3.638,7.069,8.695,13.278,15.214,18.557c12.017,9.777,25.487,13.643,40.398,11.597c15.104-2.033,27.094-9.254,35.941-21.678
		C579.955,302.088,583.482,287.976,581.416,272.156"/>
	<path fill="#FFFFFF" d="M342.928,222.517c-14.911-1.675-28.348,2.356-40.31,12.093c-11.963,9.964-18.812,22.738-20.549,38.29
		c-1.722,15.553,2.124,29.52,11.508,41.895c9.371,12.376,21.512,19.404,36.424,21.1c15.117,1.681,28.555-2.344,40.296-12.094
		c9.096-7.552,15.214-16.737,18.383-27.492c1.007-3.439,1.737-7.042,2.164-10.791c0.18-1.75,0.29-3.474,0.345-5.183
		c0.441-13.69-3.487-26.038-11.824-37.043C370.2,231.129,358.045,224.211,342.928,222.517"/>
	<path fill="#BA141A" d="M552.943,345.043c-0.164,0.049-0.274,0.09-0.412,0.131c-4.852,1.765-9.62,3.301-14.305,4.727
		c-0.028,0.057-0.084,0.098-0.112,0.139c-6.063,10.419-13.67,21.464-23.674,29.161c-7.602-6.057-16.49-10.742-24.346-13.567
		c-7.234,7.028-20.326,16.695-29.739,23.063c-3.914-3.39-24.117-15.973-28.513-18.261c-4.424,2.288-24.599,14.871-28.54,18.261
		c-9.414-6.367-22.478-16.034-29.698-23.063c-7.884,2.825-16.772,7.511-24.394,13.567c-9.535-7.358-16.895-17.758-22.821-27.762
		l-0.082-0.124c-5.099-1.44-10.294-3.095-15.614-4.968v0.027c-0.468,5.388-2.15,35.645,15.586,62.909
		c0.042,0.057,0.07,0.11,0.11,0.152c0.938,1.413,1.93,2.812,2.936,4.196c0.207,0.254,0.387,0.503,0.565,0.758
		c0.965,1.262,1.984,2.502,3.005,3.728c0.33,0.365,0.633,0.73,0.965,1.116c0.991,1.131,2.053,2.24,3.142,3.356
		c0.427,0.434,0.854,0.888,1.295,1.33c1.047,1.025,2.164,2.039,3.308,3.059c0.537,0.482,1.103,0.959,1.667,1.441
		c1.116,0.943,2.288,1.873,3.501,2.79c0.647,0.51,1.31,1.006,1.998,1.488c1.213,0.854,2.453,1.715,3.734,2.549
		c0.772,0.496,1.53,0.992,2.344,1.468c1.294,0.793,2.604,1.551,3.981,2.301c0.883,0.497,1.792,0.958,2.702,1.428
		c1.378,0.703,2.783,1.392,4.217,2.061c1.021,0.447,2.053,0.901,3.101,1.337c1.475,0.627,2.948,1.231,4.492,1.812
		c1.13,0.42,2.303,0.813,3.474,1.213c1.57,0.537,3.128,1.068,4.781,1.55c1.268,0.394,2.604,0.717,3.914,1.054
		c1.654,0.455,3.308,0.911,5.044,1.304c1.419,0.338,2.936,0.604,4.41,0.902c1.736,0.337,3.445,0.688,5.25,0.985
		c1.641,0.276,3.39,0.482,5.086,0.716c1.764,0.234,3.5,0.497,5.319,0.688c2.012,0.223,4.148,0.347,6.229,0.497
		c1.668,0.138,3.253,0.29,4.962,0.372c3.39,0.18,6.918,0.262,10.515,0.29c0.496,0,0.951,0.027,1.475,0.027
		c4.038,0,7.924-0.109,11.687-0.317c0.938-0.055,1.792-0.152,2.7-0.206c2.784-0.194,5.581-0.4,8.241-0.688
		c1.048-0.11,2.054-0.29,3.088-0.429c2.411-0.29,4.809-0.62,7.097-1.021c1.034-0.185,1.998-0.392,3.018-0.591
		c2.206-0.421,4.383-0.863,6.463-1.386c0.952-0.208,1.861-0.475,2.785-0.716c2.039-0.538,4.079-1.103,6.008-1.709
		c0.841-0.283,1.667-0.551,2.48-0.848c1.943-0.648,3.832-1.337,5.65-2.046c0.745-0.298,1.434-0.606,2.163-0.918
		c1.848-0.777,3.625-1.563,5.348-2.411c0.62-0.297,1.213-0.606,1.819-0.901c1.751-0.903,3.46-1.833,5.085-2.812l1.468-0.862
		c1.681-1.041,3.308-2.116,4.907-3.231c0.357-0.235,0.688-0.477,1.046-0.718c1.653-1.213,3.252-2.466,4.797-3.741
		c0.192-0.165,0.412-0.323,0.606-0.476c1.681-1.439,3.278-2.894,4.795-4.403c0-0.013,0.028-0.034,0.056-0.061
		C555.368,394.917,553.551,352.796,552.943,345.043"/>
	<path fill="#FFFFFF" d="M439.63,362.297c-2.758,0.035-5.514,0.077-8.27,0.077c-15.931-0.201-30.827-0.372-45.436-1.316
		c-19.694-1.24-38.933-3.853-59.604-9.736l0.082,0.11c5.913,10.004,13.272,20.423,22.821,27.761
		c7.607-6.042,16.51-10.728,24.365-13.56c7.235,7.028,20.313,16.695,29.727,23.056c3.928-3.383,24.116-15.973,28.526-18.261
		c4.41,2.288,24.585,14.878,28.527,18.261c9.411-6.36,22.477-16.027,29.725-23.056c7.855,2.832,16.759,7.518,24.372,13.56
		c9.978-7.689,17.584-18.741,23.647-29.14c0.028-0.055,0.057-0.103,0.084-0.158C503.394,360.368,472.097,362.015,439.63,362.297"/>
	<path fill="#532507" d="M416.395,333.716c2.053,0.51,3.775,0.199,5.153-0.958c1.324-1.158,1.889-2.811,1.724-4.913
		c-0.151-2.115-1.034-4.135-2.633-6.035c-1.599-1.807-3.404-2.978-5.443-3.487c-2.053-0.523-3.79-0.187-5.168,0.972
		c-1.31,1.144-1.888,2.824-1.722,5.022c0.15,2.047,1.046,4.011,2.617,5.898C412.536,332.041,414.341,333.199,416.395,333.716"/>
	<path fill="#532507" d="M447.814,333.632c2.013-0.578,3.776-1.846,5.32-3.782c1.434-1.983,2.191-4.03,2.301-6.063
		c0.083-2.218-0.564-3.852-1.97-4.912c-1.461-1.131-3.212-1.372-5.224-0.689c-1.999,0.579-3.762,1.846-5.319,3.783
		c-1.516,1.929-2.302,3.948-2.302,6.076c-0.097,2.137,0.565,3.756,1.971,4.899C443.984,333.984,445.721,334.226,447.814,333.632"/>
	<path fill="#532507" d="M544.51,256.142c-6.89-9.102-15.82-14.263-26.817-15.511c-11.018-1.012-20.831,2.055-29.498,9.192
		c-1.751,1.378-3.24,2.949-4.673,4.5c5.375,2.838,8.365,7.82,6.808,11.823c-1.735,4.459-8.461,6.003-15.007,3.433
		c-0.234-0.083-0.455-0.214-0.648-0.298c-0.882,2.681-1.502,5.507-1.833,8.483c-0.124,1.055-0.179,2.087-0.233,3.122
		c-0.469,9.156,1.764,17.549,6.753,25.129c0.579,0.902,1.171,1.792,1.832,2.667c6.656,9.088,15.614,14.152,26.831,15.173
		c10.992,1.24,20.941-1.709,29.816-8.834c8.71-7.387,13.698-16.813,15.021-28.313C554.212,275.222,551.4,265.024,544.51,256.142"/>
	<path fill="#532507" d="M355.744,240.638c-10.998-1.013-20.838,2.048-29.491,9.173c-1.765,1.397-3.226,2.948-4.672,4.52
		c5.375,2.839,8.379,7.8,6.821,11.824c-1.765,4.457-8.476,5.981-15.035,3.432c-0.234-0.083-0.428-0.214-0.647-0.311
		c-0.854,2.694-1.475,5.52-1.833,8.496c-1.323,11.501,1.461,21.815,8.364,30.904c6.67,9.103,15.614,14.152,26.818,15.166
		c11.011,1.24,20.948-1.709,29.85-8.82c6.105-5.202,10.309-11.473,12.775-18.721c1.021-3.039,1.847-6.181,2.219-9.585
		c0.263-2.185,0.33-4.308,0.275-6.382c-0.179-8.915-3.018-17.006-8.626-24.185C375.685,247.047,366.713,241.886,355.744,240.638"/>
	<path fill="#123985" d="M875.724,291.581c-99.306-57.103-74.804-179.438-72.683-189.091c0.471-1.646,0.69-3.383,0.69-5.174
		c0-10.675-8.599-19.321-19.266-19.363h-0.111c-0.274,0-0.551,0-0.827,0.014c-2.865,0.124-5.566,0.876-7.992,2.115
		c-46.139,22.437-73.095,54.318-80.123,94.759c-3.692,21.112,1.791,38.925,10.832,53.333
		c-38.973-10.033-70.779-33.943-97.652-57.521c-9.262-63.925,24.641-119.077,25.026-119.642c3.528-5.63,3.914-12.672,1.021-18.665
		c-2.867-6.003-8.627-10.074-15.243-10.84c-8.709-0.985-17.502-1.496-26.129-1.496c-80.755,0-138.74,44.1-169.018,74.412
		c-21.581,0.86-98.396,8.097-158.207,66.692c-45.448,44.507-74.927,110.27-77.008,171.809c-0.083,0.737-0.179,1.964-0.275,3.597
		c-0.399,7.725-0.579,25.813,4.631,47.8c-20.851,9.833-46.581,17.007-76.72,21.382c-6.794,0.985-12.54,5.484-15.132,11.824
		c-2.59,6.332-1.667,13.574,2.481,19.024c1.901,2.494,47.324,61.146,130.203,61.146c13.974,0,28.306-1.709,42.694-5.085
		c43.134,25.757,88.611,37.111,154.416,38.877h0.51h0.497c82.485-2.096,123.36-17.709,165.503-45.781
		c22.38,7.965,44.595,11.989,66.093,11.989c82.853,0,128.275-58.652,130.177-61.146c4.134-5.45,5.099-12.692,2.481-19.024
		c-2.592-6.34-8.354-10.839-15.133-11.824c-27.368-3.969-50.935-10.405-70.31-19.184c23.344-25.274,39.991-49.942,51.732-71.193
		c10.308,15.27,26.874,27.335,53.389,27.335c29.573,0,56.777-15.903,59.781-17.722c5.871-3.542,9.455-9.922,9.371-16.779
		C885.369,301.296,881.677,294.99,875.724,291.581 M816.272,323.311c-22.987,0-46.223-12.644-50.659-61.111
		c-7.801,22.731-30.622,76.099-86.187,128.936c20.396,13.505,51.624,26.797,99.25,33.729c0,0-40.544,53.47-114.741,53.47
		c-20.396,0-43.354-4.036-68.684-14.345c-0.524,0.358-0.993,0.743-1.517,1.103c-44.099,30.622-82.603,45.037-161.893,47.048
		c-69.194-1.859-111.021-14.318-151.743-40.31c-16.469,4.589-31.779,6.518-45.877,6.518c-74.211,0-114.769-53.483-114.769-53.483
		c45.146-6.581,75.989-18.46,96.867-30.753c-8.793-25.811-8.669-48.302-8.228-56.543c0.11-2.191,0.262-3.376,0.262-3.376
		c1.75-56.558,29.092-118.001,71.234-159.248c60.94-59.706,141.325-61.276,149.621-61.276c0.468,0,0.716,0.014,0.716,0.014
		c0.828,0.014,1.668,0.075,2.509,0.104c25.067,1.185,40.529,4.092,46.593,5.857c0,0-12.471-11.591-32.288-19.942
		c30.952-28.367,80.406-60.326,146.526-60.326c7.745,0,15.739,0.434,23.924,1.378c0,0-40.268,64.337-26.762,138.568
		c0.082,0.435,0.164,0.875,0.248,1.31c1.543,1.385,3.143,2.798,4.795,4.23c33.296,29.271,82.66,67.568,149.331,67.568
		c4.879,0,9.896-0.206,14.995-0.634c-16.317-9.468-52.064-34.97-45.341-73.632c4.715-27.038,21.141-57.24,69.897-80.846
		c0,0-34.977,143.963,81.724,211.035C866.078,308.352,841.3,323.311,816.272,323.311"/>
</g>
</svg>
